<svg width="326" height="227" viewBox="0 625 326 227" fill="none" xmlns="http://www.w3.org/2000/svg">
<path d="M27.888 668V666.506H24.567L24.387 665.993L27.951 661.655H28.572V665.912H29.553V666.506H28.572V668H27.888ZM25.242 665.912H27.888V662.663L25.242 665.912ZM35.1771 667.163C34.6851 667.793 34.0431 668.108 33.2511 668.108C32.4591 668.108 31.8171 667.796 31.3251 667.172C30.8391 666.542 30.5961 665.768 30.5961 664.85C30.5961 663.944 30.8421 663.176 31.3341 662.546C31.8321 661.91 32.4771 661.592 33.2691 661.592C34.0611 661.592 34.7001 661.907 35.1861 662.537C35.6721 663.161 35.9151 663.932 35.9151 664.85C35.9151 665.756 35.6691 666.527 35.1771 667.163ZM31.8741 666.695C32.2341 667.205 32.6991 667.46 33.2691 667.46C33.8391 667.46 34.2981 667.208 34.6461 666.704C35.0001 666.194 35.1771 665.576 35.1771 664.85C35.1771 664.136 34.9971 663.524 34.6371 663.014C34.2831 662.498 33.8211 662.24 33.2511 662.24C32.6811 662.24 32.2191 662.495 31.8651 663.005C31.5111 663.509 31.3341 664.124 31.3341 664.85C31.3341 665.564 31.5141 666.179 31.8741 666.695ZM41.6107 667.163C41.1187 667.793 40.4767 668.108 39.6847 668.108C38.8927 668.108 38.2507 667.796 37.7587 667.172C37.2727 666.542 37.0297 665.768 37.0297 664.85C37.0297 663.944 37.2757 663.176 37.7677 662.546C38.2657 661.91 38.9107 661.592 39.7027 661.592C40.4947 661.592 41.1337 661.907 41.6197 662.537C42.1057 663.161 42.3487 663.932 42.3487 664.85C42.3487 665.756 42.1027 666.527 41.6107 667.163ZM38.3077 666.695C38.6677 667.205 39.1327 667.46 39.7027 667.46C40.2727 667.46 40.7317 667.208 41.0797 666.704C41.4337 666.194 41.6107 665.576 41.6107 664.85C41.6107 664.136 41.4307 663.524 41.0707 663.014C40.7167 662.498 40.2547 662.24 39.6847 662.24C39.1147 662.24 38.6527 662.495 38.2987 663.005C37.9447 663.509 37.7677 664.124 37.7677 664.85C37.7677 665.564 37.9477 666.179 38.3077 666.695Z" fill="#878E9C"/>
<path d="M26.799 704.108C25.809 704.108 25.026 703.733 24.45 702.983L24.963 702.524C25.473 703.148 26.088 703.46 26.808 703.46C27.198 703.46 27.525 703.346 27.789 703.118C28.053 702.89 28.185 702.59 28.185 702.218C28.185 701.834 28.023 701.537 27.699 701.327C27.375 701.111 26.949 701.003 26.421 701.003H26.016L25.872 700.58L27.861 698.339H24.783V697.7H28.806V698.222L26.826 700.418C27.426 700.466 27.921 700.64 28.311 700.94C28.707 701.234 28.905 701.657 28.905 702.209C28.905 702.761 28.701 703.217 28.293 703.577C27.891 703.931 27.393 704.108 26.799 704.108ZM34.6585 703.163C34.1665 703.793 33.5245 704.108 32.7325 704.108C31.9405 704.108 31.2985 703.796 30.8065 703.172C30.3205 702.542 30.0775 701.768 30.0775 700.85C30.0775 699.944 30.3235 699.176 30.8155 698.546C31.3135 697.91 31.9585 697.592 32.7505 697.592C33.5425 697.592 34.1815 697.907 34.6675 698.537C35.1535 699.161 35.3965 699.932 35.3965 700.85C35.3965 701.756 35.1505 702.527 34.6585 703.163ZM31.3555 702.695C31.7155 703.205 32.1805 703.46 32.7505 703.46C33.3205 703.46 33.7795 703.208 34.1275 702.704C34.4815 702.194 34.6585 701.576 34.6585 700.85C34.6585 700.136 34.4785 699.524 34.1185 699.014C33.7645 698.498 33.3025 698.24 32.7325 698.24C32.1625 698.24 31.7005 698.495 31.3465 699.005C30.9925 699.509 30.8155 700.124 30.8155 700.85C30.8155 701.564 30.9955 702.179 31.3555 702.695ZM41.0921 703.163C40.6001 703.793 39.9581 704.108 39.1661 704.108C38.3741 704.108 37.7321 703.796 37.2401 703.172C36.7541 702.542 36.5111 701.768 36.5111 700.85C36.5111 699.944 36.7571 699.176 37.2491 698.546C37.7471 697.91 38.3921 697.592 39.1841 697.592C39.9761 697.592 40.6151 697.907 41.1011 698.537C41.5871 699.161 41.8301 699.932 41.8301 700.85C41.8301 701.756 41.5841 702.527 41.0921 703.163ZM37.7891 702.695C38.1491 703.205 38.6141 703.46 39.1841 703.46C39.7541 703.46 40.2131 703.208 40.5611 702.704C40.9151 702.194 41.0921 701.576 41.0921 700.85C41.0921 700.136 40.9121 699.524 40.5521 699.014C40.1981 698.498 39.7361 698.24 39.1661 698.24C38.5961 698.24 38.1341 698.495 37.7801 699.005C37.4261 699.509 37.2491 700.124 37.2491 700.85C37.2491 701.564 37.4291 702.179 37.7891 702.695Z" fill="#878E9C"/>
<path d="M24.432 747V746.451L26.718 744.435C27.21 744.003 27.552 743.643 27.744 743.355C27.936 743.067 28.032 742.767 28.032 742.455C28.032 742.095 27.909 741.804 27.663 741.582C27.417 741.36 27.117 741.249 26.763 741.249C26.421 741.249 26.118 741.336 25.854 741.51C25.596 741.684 25.335 741.957 25.071 742.329L24.549 741.951C24.855 741.495 25.179 741.159 25.521 740.943C25.863 740.721 26.295 740.61 26.817 740.61C27.381 740.61 27.846 740.781 28.212 741.123C28.584 741.459 28.77 741.888 28.77 742.41C28.77 742.842 28.653 743.226 28.419 743.562C28.185 743.898 27.771 744.33 27.177 744.858L25.494 746.352H28.833V747H24.432ZM34.5267 746.163C34.0347 746.793 33.3927 747.108 32.6007 747.108C31.8087 747.108 31.1667 746.796 30.6747 746.172C30.1887 745.542 29.9457 744.768 29.9457 743.85C29.9457 742.944 30.1917 742.176 30.6837 741.546C31.1817 740.91 31.8267 740.592 32.6187 740.592C33.4107 740.592 34.0497 740.907 34.5357 741.537C35.0217 742.161 35.2647 742.932 35.2647 743.85C35.2647 744.756 35.0187 745.527 34.5267 746.163ZM31.2237 745.695C31.5837 746.205 32.0487 746.46 32.6187 746.46C33.1887 746.46 33.6477 746.208 33.9957 745.704C34.3497 745.194 34.5267 744.576 34.5267 743.85C34.5267 743.136 34.3467 742.524 33.9867 742.014C33.6327 741.498 33.1707 741.24 32.6007 741.24C32.0307 741.24 31.5687 741.495 31.2147 742.005C30.8607 742.509 30.6837 743.124 30.6837 743.85C30.6837 744.564 30.8637 745.179 31.2237 745.695ZM40.9603 746.163C40.4683 746.793 39.8263 747.108 39.0343 747.108C38.2423 747.108 37.6003 746.796 37.1083 746.172C36.6223 745.542 36.3793 744.768 36.3793 743.85C36.3793 742.944 36.6253 742.176 37.1173 741.546C37.6153 740.91 38.2603 740.592 39.0523 740.592C39.8443 740.592 40.4833 740.907 40.9693 741.537C41.4553 742.161 41.6983 742.932 41.6983 743.85C41.6983 744.756 41.4523 745.527 40.9603 746.163ZM37.6573 745.695C38.0173 746.205 38.4823 746.46 39.0523 746.46C39.6223 746.46 40.0813 746.208 40.4293 745.704C40.7833 745.194 40.9603 744.576 40.9603 743.85C40.9603 743.136 40.7803 742.524 40.4203 742.014C40.0663 741.498 39.6043 741.24 39.0343 741.24C38.4643 741.24 38.0023 741.495 37.6483 742.005C37.2943 742.509 37.1173 743.124 37.1173 743.85C37.1173 744.564 37.2973 745.179 37.6573 745.695Z" fill="#878E9C"/>
<path d="M25.611 787V781.393L24.423 781.762L24.252 781.186L25.791 780.655H26.313V787H25.611ZM32.3646 786.163C31.8726 786.793 31.2306 787.108 30.4386 787.108C29.6466 787.108 29.0046 786.796 28.5126 786.172C28.0266 785.542 27.7836 784.768 27.7836 783.85C27.7836 782.944 28.0296 782.176 28.5216 781.546C29.0196 780.91 29.6646 780.592 30.4566 780.592C31.2486 780.592 31.8876 780.907 32.3736 781.537C32.8596 782.161 33.1026 782.932 33.1026 783.85C33.1026 784.756 32.8566 785.527 32.3646 786.163ZM29.0616 785.695C29.4216 786.205 29.8866 786.46 30.4566 786.46C31.0266 786.46 31.4856 786.208 31.8336 785.704C32.1876 785.194 32.3646 784.576 32.3646 783.85C32.3646 783.136 32.1846 782.524 31.8246 782.014C31.4706 781.498 31.0086 781.24 30.4386 781.24C29.8686 781.24 29.4066 781.495 29.0526 782.005C28.6986 782.509 28.5216 783.124 28.5216 783.85C28.5216 784.564 28.7016 785.179 29.0616 785.695ZM38.7982 786.163C38.3062 786.793 37.6642 787.108 36.8722 787.108C36.0802 787.108 35.4382 786.796 34.9462 786.172C34.4602 785.542 34.2172 784.768 34.2172 783.85C34.2172 782.944 34.4632 782.176 34.9552 781.546C35.4532 780.91 36.0982 780.592 36.8902 780.592C37.6822 780.592 38.3212 780.907 38.8072 781.537C39.2932 782.161 39.5362 782.932 39.5362 783.85C39.5362 784.756 39.2902 785.527 38.7982 786.163ZM35.4952 785.695C35.8552 786.205 36.3202 786.46 36.8902 786.46C37.4602 786.46 37.9192 786.208 38.2672 785.704C38.6212 785.194 38.7982 784.576 38.7982 783.85C38.7982 783.136 38.6182 782.524 38.2582 782.014C37.9042 781.498 37.4422 781.24 36.8722 781.24C36.3022 781.24 35.8402 781.495 35.4862 782.005C35.1322 782.509 34.9552 783.124 34.9552 783.85C34.9552 784.564 35.1352 785.179 35.4952 785.695Z" fill="#878E9C"/>
<rect x="55.5" y="663.5" width="237" height="163" stroke="#E6EBF0"/>
<line x1="55" y1="703.5" x2="293" y2="703.5" stroke="#E6EBF0"/>
<line x1="89.5" y1="827" x2="89.5" y2="663" stroke="#E6EBF0"/>
<line x1="123.5" y1="827" x2="123.5" y2="663" stroke="#E6EBF0"/>
<line x1="157.5" y1="827" x2="157.5" y2="663" stroke="#E6EBF0"/>
<line x1="191.5" y1="827" x2="191.5" y2="663" stroke="#E6EBF0"/>
<line x1="226.5" y1="827" x2="226.5" y2="663" stroke="#E6EBF0"/>
<line x1="292.5" y1="827" x2="292.5" y2="663" stroke="#E6EBF0"/>
<line x1="257.5" y1="827" x2="257.5" y2="663" stroke="#E6EBF0"/>
<line x1="55" y1="746.5" x2="293" y2="746.5" stroke="#E6EBF0"/>
<line x1="55" y1="787.5" x2="293" y2="787.5" stroke="#E6EBF0"/>
<path d="M55 807.5C61.8333 793.833 80.6 760.4 115 752C158 741.5 191 771.5 220 743C249 714.5 241 671.5 292 674" stroke="#FFD02C" stroke-width="5"/>
</svg>
